<?xml version="1.0" encoding="utf-8"?>
<!-- Generator: Adobe Illustrator 16.0.0, SVG Export Plug-In . SVG Version: 6.00 Build 0)  -->
<!DOCTYPE svg PUBLIC "-//W3C//DTD SVG 1.1//EN" "http://www.w3.org/Graphics/SVG/1.1/DTD/svg11.dtd">
<svg version="1.1" id="Calque_1" xmlns="http://www.w3.org/2000/svg" xmlns:xlink="http://www.w3.org/1999/xlink" x="0px" y="0px"
	 width="249.246px" height="372.912px" viewBox="0 0 249.246 372.912" enable-background="new 0 0 249.246 372.912"
	 xml:space="preserve">
<g>
	<rect y="0" fill="#123257" width="249.246" height="372.909"/>
	<g>
		<defs>
			<rect id="SVGID_1_" x="110.314" y="103.534" width="26.009" height="3.219"/>
		</defs>
		<clipPath id="SVGID_2_">
			<use xlink:href="#SVGID_1_"  overflow="visible"/>
		</clipPath>
		
			<linearGradient id="SVGID_3_" gradientUnits="userSpaceOnUse" x1="-174.8569" y1="622.198" x2="-170.0855" y2="622.198" gradientTransform="matrix(4.232 0 0 -4.232 849.3414 2738.2844)">
			<stop  offset="0" style="stop-color:#A88A4D"/>
			<stop  offset="1" style="stop-color:#D4BE5E"/>
		</linearGradient>
		<rect x="110.314" y="103.534" clip-path="url(#SVGID_2_)" fill="url(#SVGID_3_)" width="26.009" height="3.219"/>
	</g>
	<g>
		<defs>
			<rect id="SVGID_4_" x="110.314" y="111.185" width="26.009" height="3.224"/>
		</defs>
		<clipPath id="SVGID_5_">
			<use xlink:href="#SVGID_4_"  overflow="visible"/>
		</clipPath>
		
			<linearGradient id="SVGID_6_" gradientUnits="userSpaceOnUse" x1="-174.8569" y1="620.7673" x2="-170.0855" y2="620.7673" gradientTransform="matrix(4.232 0 0 -4.232 849.3414 2739.886)">
			<stop  offset="0" style="stop-color:#A88A4D"/>
			<stop  offset="1" style="stop-color:#D4BE5E"/>
		</linearGradient>
		<rect x="110.314" y="111.185" clip-path="url(#SVGID_5_)" fill="url(#SVGID_6_)" width="26.009" height="3.224"/>
	</g>
	<g>
		<defs>
			<rect id="SVGID_7_" x="110.314" y="118.84" width="26.009" height="3.22"/>
		</defs>
		<clipPath id="SVGID_8_">
			<use xlink:href="#SVGID_7_"  overflow="visible"/>
		</clipPath>
		
			<linearGradient id="SVGID_9_" gradientUnits="userSpaceOnUse" x1="-174.8569" y1="619.3386" x2="-170.0855" y2="619.3386" gradientTransform="matrix(4.232 0 0 -4.232 849.3414 2741.4915)">
			<stop  offset="0" style="stop-color:#A88A4D"/>
			<stop  offset="1" style="stop-color:#D4BE5E"/>
		</linearGradient>
		<rect x="110.314" y="118.84" clip-path="url(#SVGID_8_)" fill="url(#SVGID_9_)" width="26.009" height="3.22"/>
	</g>
	<g>
		<defs>
			<rect id="SVGID_10_" x="110.314" y="126.495" width="26.009" height="3.215"/>
		</defs>
		<clipPath id="SVGID_11_">
			<use xlink:href="#SVGID_10_"  overflow="visible"/>
		</clipPath>
		
			<linearGradient id="SVGID_12_" gradientUnits="userSpaceOnUse" x1="-174.8569" y1="617.9089" x2="-170.0855" y2="617.9089" gradientTransform="matrix(4.232 0 0 -4.232 849.3414 2743.0969)">
			<stop  offset="0" style="stop-color:#A88A4D"/>
			<stop  offset="1" style="stop-color:#D4BE5E"/>
		</linearGradient>
		<rect x="110.314" y="126.495" clip-path="url(#SVGID_11_)" fill="url(#SVGID_12_)" width="26.009" height="3.215"/>
	</g>
	<g>
		<defs>
			<rect id="SVGID_13_" x="110.314" y="134.146" width="26.009" height="3.22"/>
		</defs>
		<clipPath id="SVGID_14_">
			<use xlink:href="#SVGID_13_"  overflow="visible"/>
		</clipPath>
		
			<linearGradient id="SVGID_15_" gradientUnits="userSpaceOnUse" x1="-174.8569" y1="616.4792" x2="-170.0855" y2="616.4792" gradientTransform="matrix(4.232 0 0 -4.232 849.3414 2744.6985)">
			<stop  offset="0" style="stop-color:#A88A4D"/>
			<stop  offset="1" style="stop-color:#D4BE5E"/>
		</linearGradient>
		<rect x="110.314" y="134.146" clip-path="url(#SVGID_14_)" fill="url(#SVGID_15_)" width="26.009" height="3.22"/>
	</g>
	<g>
		<defs>
			<rect id="SVGID_16_" x="110.314" y="141.797" width="26.009" height="3.215"/>
		</defs>
		<clipPath id="SVGID_17_">
			<use xlink:href="#SVGID_16_"  overflow="visible"/>
		</clipPath>
		
			<linearGradient id="SVGID_18_" gradientUnits="userSpaceOnUse" x1="-174.8569" y1="615.0515" x2="-170.0855" y2="615.0515" gradientTransform="matrix(4.232 0 0 -4.232 849.3414 2746.304)">
			<stop  offset="0" style="stop-color:#A88A4D"/>
			<stop  offset="1" style="stop-color:#D4BE5E"/>
		</linearGradient>
		<rect x="110.314" y="141.797" clip-path="url(#SVGID_17_)" fill="url(#SVGID_18_)" width="26.009" height="3.215"/>
	</g>
	<g>
		<defs>
			<rect id="SVGID_19_" x="110.314" y="149.448" width="26.009" height="3.215"/>
		</defs>
		<clipPath id="SVGID_20_">
			<use xlink:href="#SVGID_19_"  overflow="visible"/>
		</clipPath>
		
			<linearGradient id="SVGID_21_" gradientUnits="userSpaceOnUse" x1="-174.8569" y1="613.6228" x2="-170.0855" y2="613.6228" gradientTransform="matrix(4.232 0 0 -4.232 849.3414 2747.9055)">
			<stop  offset="0" style="stop-color:#A88A4D"/>
			<stop  offset="1" style="stop-color:#D4BE5E"/>
		</linearGradient>
		<rect x="110.314" y="149.448" clip-path="url(#SVGID_20_)" fill="url(#SVGID_21_)" width="26.009" height="3.215"/>
	</g>
	<g>
		<defs>
			<rect id="SVGID_22_" x="110.314" y="157.098" width="26.009" height="3.215"/>
		</defs>
		<clipPath id="SVGID_23_">
			<use xlink:href="#SVGID_22_"  overflow="visible"/>
		</clipPath>
		
			<linearGradient id="SVGID_24_" gradientUnits="userSpaceOnUse" x1="-174.8569" y1="612.1941" x2="-170.0855" y2="612.1941" gradientTransform="matrix(4.232 0 0 -4.232 849.3414 2749.511)">
			<stop  offset="0" style="stop-color:#A88A4D"/>
			<stop  offset="1" style="stop-color:#D4BE5E"/>
		</linearGradient>
		<rect x="110.314" y="157.098" clip-path="url(#SVGID_23_)" fill="url(#SVGID_24_)" width="26.009" height="3.215"/>
	</g>
	<g>
		<defs>
			<rect id="SVGID_25_" x="110.314" y="164.749" width="26.009" height="3.219"/>
		</defs>
		<clipPath id="SVGID_26_">
			<use xlink:href="#SVGID_25_"  overflow="visible"/>
		</clipPath>
		
			<linearGradient id="SVGID_27_" gradientUnits="userSpaceOnUse" x1="-174.8569" y1="610.7644" x2="-170.0855" y2="610.7644" gradientTransform="matrix(4.232 0 0 -4.232 849.3414 2751.1125)">
			<stop  offset="0" style="stop-color:#A88A4D"/>
			<stop  offset="1" style="stop-color:#D4BE5E"/>
		</linearGradient>
		<rect x="110.314" y="164.749" clip-path="url(#SVGID_26_)" fill="url(#SVGID_27_)" width="26.009" height="3.219"/>
	</g>
	<g>
		<defs>
			<rect id="SVGID_28_" x="110.314" y="172.399" width="26.009" height="3.225"/>
		</defs>
		<clipPath id="SVGID_29_">
			<use xlink:href="#SVGID_28_"  overflow="visible"/>
		</clipPath>
		
			<linearGradient id="SVGID_30_" gradientUnits="userSpaceOnUse" x1="-174.8569" y1="609.3347" x2="-170.0855" y2="609.3347" gradientTransform="matrix(4.232 0 0 -4.232 849.3414 2752.718)">
			<stop  offset="0" style="stop-color:#A88A4D"/>
			<stop  offset="1" style="stop-color:#D4BE5E"/>
		</linearGradient>
		<rect x="110.314" y="172.399" clip-path="url(#SVGID_29_)" fill="url(#SVGID_30_)" width="26.009" height="3.225"/>
	</g>
	<g>
		<defs>
			<rect id="SVGID_31_" x="110.314" y="180.05" width="26.009" height="3.22"/>
		</defs>
		<clipPath id="SVGID_32_">
			<use xlink:href="#SVGID_31_"  overflow="visible"/>
		</clipPath>
		
			<linearGradient id="SVGID_33_" gradientUnits="userSpaceOnUse" x1="-174.8569" y1="607.907" x2="-170.0855" y2="607.907" gradientTransform="matrix(4.232 0 0 -4.232 849.3414 2754.3196)">
			<stop  offset="0" style="stop-color:#A88A4D"/>
			<stop  offset="1" style="stop-color:#D4BE5E"/>
		</linearGradient>
		<rect x="110.314" y="180.05" clip-path="url(#SVGID_32_)" fill="url(#SVGID_33_)" width="26.009" height="3.22"/>
	</g>
	<g>
		<defs>
			<rect id="SVGID_34_" x="110.314" y="187.7" width="26.009" height="3.225"/>
		</defs>
		<clipPath id="SVGID_35_">
			<use xlink:href="#SVGID_34_"  overflow="visible"/>
		</clipPath>
		
			<linearGradient id="SVGID_36_" gradientUnits="userSpaceOnUse" x1="-174.8569" y1="606.4773" x2="-170.0855" y2="606.4773" gradientTransform="matrix(4.232 0 0 -4.232 849.3414 2755.925)">
			<stop  offset="0" style="stop-color:#A88A4D"/>
			<stop  offset="1" style="stop-color:#D4BE5E"/>
		</linearGradient>
		<rect x="110.314" y="187.7" clip-path="url(#SVGID_35_)" fill="url(#SVGID_36_)" width="26.009" height="3.225"/>
	</g>
	<g>
		<defs>
			<rect id="SVGID_37_" x="110.314" y="195.351" width="26.009" height="3.226"/>
		</defs>
		<clipPath id="SVGID_38_">
			<use xlink:href="#SVGID_37_"  overflow="visible"/>
		</clipPath>
		
			<linearGradient id="SVGID_39_" gradientUnits="userSpaceOnUse" x1="-174.8569" y1="605.0476" x2="-170.0855" y2="605.0476" gradientTransform="matrix(4.232 0 0 -4.232 849.3414 2757.5266)">
			<stop  offset="0" style="stop-color:#A88A4D"/>
			<stop  offset="1" style="stop-color:#D4BE5E"/>
		</linearGradient>
		<rect x="110.314" y="195.351" clip-path="url(#SVGID_38_)" fill="url(#SVGID_39_)" width="26.009" height="3.226"/>
	</g>
	<g>
		<defs>
			<path id="SVGID_40_" d="M156.917,92.594V62.551L89.722,23.803v68.791l-44.883,26.488l1.837,100.329l2.442-97.613l40.603-22.845
				V212.74l21.087,11.984V80.154l-15.472,9.124V33.793l55.959,32.262v23.222l-15.468-9.124v144.571l21.088-11.984V98.954
				l40.601,22.845l2.44,97.613l1.837-100.329L156.917,92.594z M105.023,90.339v124.536l-9.686-5.667V95.79L105.023,90.339z
				 M151.297,209.208l-9.686,5.667V90.339l9.686,5.451V209.208z"/>
		</defs>
		<clipPath id="SVGID_41_">
			<use xlink:href="#SVGID_40_"  overflow="visible"/>
		</clipPath>
		
			<linearGradient id="SVGID_42_" gradientUnits="userSpaceOnUse" x1="-173.3013" y1="607.7556" x2="-168.5312" y2="607.7556" gradientTransform="matrix(37.3971 -33.7697 -33.7697 -37.3971 27030.5684 17088.2031)">
			<stop  offset="0" style="stop-color:#A88A4D"/>
			<stop  offset="1" style="stop-color:#D4BE5E"/>
		</linearGradient>
		<polygon clip-path="url(#SVGID_41_)" fill="url(#SVGID_42_)" points="-55.102,114.051 131.296,-54.268 301.737,134.482 
			115.339,302.795 		"/>
	</g>
	<g>
		<path fill="#FFFFFF" d="M43.385,276.508h15.32v-16.4C50.232,260.646,44.297,266.443,43.385,276.508 M54.397,265.39v6.803h-5.468
			C49.799,269.341,51.573,266.546,54.397,265.39"/>
		<rect x="54.396" y="253.118" fill="#FFFFFF" width="4.31" height="4.306"/>
		<rect x="48.241" y="253.118" fill="#FFFFFF" width="4.378" height="4.306"/>
		<rect x="115.19" y="279.219" fill="#FFFFFF" width="4.308" height="4.38"/>
		<rect x="121.306" y="279.219" fill="#FFFFFF" width="4.31" height="4.38"/>
		<rect x="177.963" y="279.219" fill="#FFFFFF" width="4.311" height="4.38"/>
		<path fill="#FFFFFF" d="M201.906,272.193h-4.747h-0.577h-14.091h-0.218v-12.086h-4.306v12.086h-4.752h-0.573h-14.1h-0.22v-5.534
			c0-3.879-2.785-6.552-6.807-6.552h-6.267v4.304h6.411c1.519,0,2.283,0.868,2.283,2.648v5.134h-13.442h-0.572h-14.101h-0.214
			v-12.086h-4.308v12.086h-8.514h-0.573H98.483h-0.936H84.175h-0.936H69.507h-0.219v-12.086h-4.308v16.289
			c0,1.956-1.055,2.972-3.189,2.972h-0.542v4.231h0.578c3.951,0,7.248-1.548,7.461-7.092h0.219h13.731h0.936h13.372h0.936h13.738
			h0.573h12.467h0.568h14.101h0.572h17.467h0.574h14.1h0.573h8.703h0.572h14.091h0.577h9.058v-23.39h-4.311V272.193z"/>
		<rect x="209.479" y="253.118" fill="#FFFFFF" width="4.311" height="23.39"/>
		<path fill="#D7C161" d="M43.063,309.291v-0.467c0.645-0.073,1.125-0.317,1.452-0.727c0.319-0.41,0.871-1.537,1.652-3.383
			l5.223-12.291h0.495l6.242,14.202c0.415,0.941,0.749,1.519,0.998,1.741c0.246,0.225,0.665,0.374,1.253,0.457v0.467h-6.37v-0.467
			c0.729-0.065,1.202-0.139,1.417-0.242c0.213-0.083,0.316-0.315,0.316-0.68c0-0.13-0.043-0.335-0.12-0.644
			c-0.083-0.316-0.196-0.643-0.343-0.978l-1-2.405h-6.606c-0.648,1.631-1.039,2.638-1.166,3c-0.126,0.354-0.188,0.644-0.188,0.849
			c0,0.43,0.173,0.718,0.515,0.877c0.21,0.101,0.605,0.176,1.193,0.223v0.467H43.063z M53.853,302.851l-2.873-6.896l-2.882,6.896
			H53.853z"/>
		<path fill="#D7C161" d="M64.042,308.824c0.92-0.102,1.518-0.261,1.79-0.493c0.275-0.224,0.41-0.819,0.41-1.762v-11.136
			c0-0.885-0.134-1.473-0.4-1.741c-0.274-0.28-0.869-0.449-1.799-0.514v-0.457h7.071v0.457c-0.928,0.047-1.543,0.206-1.857,0.457
			c-0.314,0.25-0.468,0.791-0.468,1.621v12.039c0,0.28,0.043,0.494,0.139,0.653c0.096,0.158,0.301,0.261,0.621,0.298
			c0.186,0.027,0.387,0.047,0.59,0.057c0.21,0,0.598,0.01,1.17,0.01c2.227,0,3.734-0.188,4.517-0.551
			c0.788-0.373,1.548-1.306,2.281-2.813h0.633l-1.221,4.342H64.042V308.824z"/>
		<path fill="#D7C161" d="M82.477,308.824c1.009-0.055,1.656-0.213,1.953-0.467c0.296-0.26,0.445-0.855,0.445-1.778v-11.146
			c0-0.922-0.149-1.519-0.445-1.78c-0.296-0.269-0.944-0.418-1.953-0.475v-0.467h7.016c2.003,0,3.592,0.328,4.77,0.971
			c1.179,0.643,1.766,1.751,1.766,3.335c0,1.184-0.409,2.079-1.236,2.685c-0.462,0.353-1.158,0.644-2.091,0.876
			c1.151,0.271,2.134,0.735,2.95,1.388c0.814,0.643,1.221,1.548,1.221,2.712c0,1.958-0.901,3.308-2.713,4.035
			c-0.951,0.383-2.124,0.578-3.518,0.578h-8.165V308.824z M91.896,299.729c1.059-0.484,1.589-1.359,1.589-2.628
			c0-1.49-0.611-2.506-1.832-3.027c-0.683-0.289-1.708-0.43-3.088-0.43c-0.521,0-0.845,0.048-0.963,0.131
			c-0.123,0.093-0.182,0.345-0.182,0.746v5.655l2.381-0.037C90.642,300.121,91.34,299.99,91.896,299.729 M92.701,307.64
			c0.865-0.493,1.299-1.454,1.299-2.86c0-1.408-0.51-2.367-1.517-2.88c-1.011-0.513-2.299-0.773-3.865-0.773h-0.729
			c-0.101,0-0.259,0-0.468-0.01v6.244c0,0.429,0.119,0.708,0.363,0.839c0.247,0.121,0.816,0.188,1.704,0.188
			C90.767,308.387,91.84,308.135,92.701,307.64"/>
		<path fill="#D7C161" d="M109.168,292.712v0.467c-0.959,0.064-1.585,0.223-1.87,0.484c-0.288,0.261-0.43,0.849-0.43,1.771v8.005
			c0,1.314,0.182,2.339,0.538,3.075c0.668,1.343,1.938,2.003,3.805,2.003c2.044,0,3.419-0.68,4.121-2.049
			c0.392-0.766,0.585-1.949,0.585-3.551v-6.522c0-1.362-0.162-2.208-0.485-2.563c-0.324-0.345-0.948-0.56-1.862-0.653v-0.467h5.798
			v0.467c-0.968,0.103-1.601,0.345-1.898,0.707c-0.3,0.364-0.449,1.193-0.449,2.509v6.522c0,1.724-0.268,3.074-0.797,4.044
			c-0.978,1.79-2.834,2.685-5.578,2.685c-2.705,0-4.547-0.887-5.525-2.647c-0.534-0.94-0.797-2.188-0.797-3.736v-7.828
			c0-0.912-0.143-1.501-0.42-1.761c-0.283-0.251-0.896-0.42-1.84-0.494v-0.467H109.168z"/>
		<path fill="#D7C161" d="M123.19,308.824c0.978-0.102,1.586-0.288,1.837-0.54c0.243-0.252,0.365-0.923,0.365-2.003v-10.848
			c0-0.896-0.136-1.481-0.416-1.751c-0.27-0.271-0.867-0.439-1.787-0.504v-0.457h6.95v0.457c-0.919,0.064-1.514,0.233-1.794,0.504
			c-0.276,0.27-0.41,0.855-0.41,1.751v4.884h7.608v-4.884c0-0.896-0.135-1.481-0.404-1.751c-0.271-0.271-0.867-0.439-1.799-0.504
			v-0.457h6.945v0.457c-0.916,0.064-1.514,0.233-1.792,0.504c-0.271,0.27-0.41,0.855-0.41,1.751v11.136c0,0.913,0.14,1.5,0.41,1.752
			c0.278,0.252,0.876,0.42,1.792,0.503v0.467h-6.945v-0.467c0.987-0.102,1.604-0.279,1.846-0.53
			c0.236-0.262,0.357-0.933,0.357-2.013v-4.874h-7.608v5.162c0,0.913,0.134,1.5,0.41,1.762c0.28,0.251,0.875,0.42,1.794,0.493v0.467
			h-6.95V308.824z"/>
		<path fill="#D7C161" d="M144.22,309.291v-0.467c0.648-0.073,1.128-0.317,1.453-0.727c0.318-0.41,0.872-1.537,1.655-3.383
			l5.219-12.291h0.498l6.239,14.202c0.415,0.941,0.75,1.519,0.996,1.741c0.248,0.225,0.667,0.374,1.253,0.457v0.467h-6.368v-0.467
			c0.732-0.065,1.202-0.139,1.417-0.242c0.213-0.083,0.315-0.315,0.315-0.68c0-0.13-0.037-0.335-0.121-0.644
			c-0.083-0.316-0.194-0.643-0.341-0.978l-1-2.405h-6.608c-0.646,1.631-1.037,2.638-1.159,3c-0.13,0.354-0.19,0.644-0.19,0.849
			c0,0.43,0.166,0.718,0.511,0.877c0.211,0.101,0.611,0.176,1.193,0.223v0.467H144.22z M155.011,302.851l-2.876-6.896l-2.878,6.896
			H155.011z"/>
		<path fill="#D7C161" d="M165.322,308.824c1.015-0.073,1.683-0.223,1.98-0.457c0.302-0.232,0.451-0.828,0.451-1.798v-11.136
			c0-0.922-0.149-1.519-0.451-1.78c-0.298-0.269-0.966-0.428-1.98-0.475v-0.457h7.409v0.457c-1.018,0.047-1.678,0.206-1.977,0.475
			c-0.303,0.262-0.457,0.858-0.457,1.78v11.136c0,0.97,0.154,1.565,0.457,1.798c0.299,0.234,0.959,0.384,1.977,0.457v0.467h-7.409
			V308.824z"/>
		<path fill="#D7C161" d="M176.514,308.824c0.966-0.083,1.565-0.279,1.804-0.558c0.233-0.291,0.353-0.94,0.353-1.985v-10.848
			c0-0.885-0.134-1.463-0.396-1.733c-0.27-0.27-0.847-0.447-1.761-0.521v-0.467h6.938c1.443,0,2.646,0.187,3.61,0.551
			c1.822,0.698,2.739,1.966,2.739,3.83c0,1.248-0.405,2.198-1.216,2.871c-0.816,0.66-1.916,1.099-3.313,1.313l5.161,6.354
			c0.323,0.392,0.641,0.683,0.956,0.858c0.317,0.177,0.722,0.288,1.221,0.335v0.467h-4.03l-6.266-7.717l-1.1,0.057v4.938
			c0,0.933,0.139,1.519,0.42,1.762c0.283,0.242,0.893,0.41,1.839,0.493v0.467h-6.961V308.824z M185.078,300.139
			c1.332-0.541,1.995-1.565,1.995-3.075c0-1.453-0.599-2.433-1.785-2.963c-0.641-0.29-1.481-0.429-2.535-0.429
			c-0.709,0-1.142,0.047-1.301,0.149c-0.158,0.102-0.236,0.345-0.236,0.709v6.169C183.018,300.634,184.306,300.447,185.078,300.139"
			/>
		<path fill="#D7C161" d="M196.288,309.291v-0.467c0.644-0.073,1.127-0.317,1.455-0.727c0.315-0.41,0.87-1.537,1.652-3.383
			l5.218-12.291h0.499l6.239,14.202c0.414,0.941,0.751,1.519,0.997,1.741c0.247,0.225,0.668,0.374,1.253,0.457v0.467h-6.369v-0.467
			c0.732-0.065,1.203-0.139,1.417-0.242c0.211-0.083,0.316-0.315,0.316-0.68c0-0.13-0.037-0.335-0.12-0.644
			c-0.086-0.316-0.196-0.643-0.34-0.978l-1.003-2.405h-6.606c-0.647,1.631-1.039,2.638-1.161,3c-0.129,0.354-0.19,0.644-0.19,0.849
			c0,0.43,0.168,0.718,0.514,0.877c0.208,0.101,0.609,0.176,1.193,0.223v0.467H196.288z M207.073,302.851l-2.868-6.896l-2.885,6.896
			H207.073z"/>
		<path fill="#00A2E5" d="M108.632,326.195c-38.022-9.721-52.541-1.548-52.541-1.548c35.034-7.388,58.224,15.973,108.98,22.477
			c40.754,5.219,50.706-12.943,50.706-12.943C193.315,349.883,145.473,335.606,108.632,326.195"/>
		<path fill="#00A2E5" d="M167.675,331.535c-10.396-0.615-19.611-2.722-28.096-4.855c10.619,3.419,22.673,6.477,37.052,7.846
			c41.075,3.914,49.677-15.524,49.677-15.524C222.6,321.851,202.457,333.601,167.675,331.535"/>
		<path fill="#00A2E5" d="M33.703,340.22c4.417-2.351,27.409-11.426,61.042-5.099c10.053,1.883,18.543,5.105,26.31,8.247
			c-9.515-4.677-20.537-9.169-34.302-12.291C47.43,322.17,33.703,340.22,33.703,340.22"/>
	</g>
</g>
</svg>
